<svg xmlns="http://www.w3.org/2000/svg" viewBox="0 0 129.2 124.13"><defs><style>.cls-1{fill:#fff;}.cls-2{fill:none;stroke:#fff;stroke-width:3px;}</style></defs><title>logo-sm</title><g id="Layer_2" data-name="Layer 2"><g id="Layer_1-2" data-name="Layer 1"><path id="Rectangle_1" data-name="Rectangle 1" class="cls-1" d="M35.14,44.45,56.87,62.7a12.38,12.38,0,0,1,1.52,17.43h0A12.38,12.38,0,0,1,41,81.65L19.23,63.4A12.36,12.36,0,0,1,17.71,46h0A12.38,12.38,0,0,1,35.14,44.45Z"/><path id="Path_2" data-name="Path 2" class="cls-1" d="M33.61,40.13,57.7,60.26l.21-17.6a44.64,44.64,0,0,0-12.5-3.29A29.55,29.55,0,0,0,33.61,40.13Z"/><path id="Path_3" data-name="Path 3" class="cls-1" d="M41.29,84.82l-26-21.69.56,19c5.36,2.44,5.25,2.29,12.39,3.16A41.75,41.75,0,0,0,41.29,84.82Z"/><path id="Rectangle_2" data-name="Rectangle 2" class="cls-1" d="M87.32,44.45,109.05,62.7a12.38,12.38,0,0,1,1.52,17.43h0a12.38,12.38,0,0,1-17.43,1.52L71.41,63.4A12.36,12.36,0,0,1,69.89,46h0A12.38,12.38,0,0,1,87.32,44.45Z"/><path id="Path_4" data-name="Path 4" class="cls-1" d="M85.79,40.13l24.09,20.13.21-17.6a44.82,44.82,0,0,0-12.5-3.29A29.54,29.54,0,0,0,85.79,40.13Z"/><path id="Path_5" data-name="Path 5" class="cls-1" d="M93.47,84.82l-26-21.69.55,19c5.37,2.44,5.26,2.29,12.4,3.16A41.77,41.77,0,0,0,93.47,84.82Z"/><path id="Path_6" data-name="Path 6" class="cls-2" d="M64.6,1.5c34.85,0,63.1,27.12,63.1,60.57s-28.25,60.56-63.1,60.56S1.5,95.51,1.5,62.07,29.75,1.5,64.6,1.5Z"/></g></g></svg>